<svg xmlns="http://www.w3.org/2000/svg" width="95.008" height="27.055" viewBox="0 0 95.008 27.055">
  <g id="Сгруппировать_260" data-name="Сгруппировать 260" transform="translate(-1143 -534.199)">
    <g id="Сгруппировать_259" data-name="Сгруппировать 259" transform="translate(3.355 3.009)">
      <path id="Контур_417" data-name="Контур 417" d="M1146.922,555.508a1.362,1.362,0,0,1-.508-.211l-5.693-5.52q-.411-.39-.587-.575a2.138,2.138,0,0,1-.333-.494,1.446,1.446,0,0,1-.156-.664v-.793a1.416,1.416,0,0,1,.166-.672,2.137,2.137,0,0,1,.313-.47q.147-.153.616-.59l5.674-5.667a.79.79,0,0,1,.489-.162.624.624,0,0,1,.479.2.706.706,0,0,1,.186.494v.907a1.68,1.68,0,0,1-.02.267c-.013.081-.026.151-.039.211a.684.684,0,0,1-.1.21,1.164,1.164,0,0,0-.1.17.838.838,0,0,1-.147.178c-.085.087-.134.135-.147.146l-.2.178c-.117.108-.182.167-.195.178l-4.382,4.533a.329.329,0,0,0,0,.583l4.382,4.371c.039.033.1.089.195.17s.154.138.186.17l.157.154a1.385,1.385,0,0,1,.147.162l.107.162a.619.619,0,0,1,.088.194c.013.06.026.13.039.211a1.68,1.68,0,0,1,.02.267v1.02a.682.682,0,0,1-.186.477A.6.6,0,0,1,1146.922,555.508Z" transform="translate(0 -1.765)" fill="#e6e6e6"/>
      <path id="Контур_418" data-name="Контур 418" d="M1152.442,558.231q-.176,0-.176-.38a.313.313,0,0,1,.01-.059.383.383,0,0,0,.01-.072l4.577-26.019c.065-.341.183-.511.352-.511h2.68c.13,0,.2.122.2.365a.388.388,0,0,1-.02.146l-4.6,26.034q-.1.51-.313.51Z" fill="#e6e6e6"/>
      <path id="Контур_419" data-name="Контур 419" d="M1164.434,554.91a.529.529,0,0,1-.391-.12.838.838,0,0,1-.118-.545V535.239a.833.833,0,0,1,.118-.544.528.528,0,0,1,.391-.121h2.836a.528.528,0,0,1,.391.121.832.832,0,0,1,.118.544v7.524a.391.391,0,0,0,.068.226c.046.066.088.1.128.1h5.868c.039,0,.085-.036.137-.107a.385.385,0,0,0,.078-.233v-7.51a.8.8,0,0,1,.127-.537.519.519,0,0,1,.382-.128h2.876a.5.5,0,0,1,.371.121.839.839,0,0,1,.118.544v19.007a.844.844,0,0,1-.118.545.5.5,0,0,1-.371.12h-2.876a.841.841,0,0,1-.274-.035.357.357,0,0,1-.176-.191,1,1,0,0,1-.078-.439V545.6c0-.2-.072-.3-.215-.3h-5.81c-.131,0-.2.1-.2.3v8.641a.8.8,0,0,1-.127.538.52.52,0,0,1-.382.127Z" transform="translate(-0.966 0)" fill="#e6e6e6"/>
      <path id="Контур_420" data-name="Контур 420" d="M1185.268,554.91a.471.471,0,0,1-.362-.135.821.821,0,0,1-.128-.544V537.2c0-.235-.071-.353-.215-.353h-3.4a1.343,1.343,0,0,1-.283-.022.264.264,0,0,1-.157-.141.779.779,0,0,1-.068-.375V535.2a.751.751,0,0,1,.117-.5.53.53,0,0,1,.391-.121h11.053a.5.5,0,0,1,.372.121.751.751,0,0,1,.117.5v1.116c0,.237-.036.384-.107.446a.6.6,0,0,1-.382.092h-3.345c-.144,0-.215.118-.215.353v17.028a.828.828,0,0,1-.127.552.521.521,0,0,1-.382.127Z" transform="translate(-1.594 0)" fill="#e6e6e6"/>
      <path id="Контур_421" data-name="Контур 421" d="M1195.518,554.91c-.312,0-.469-.231-.469-.693v-.071l.88-18.767q.02-.777.489-.806h3.091a.967.967,0,0,1,.489.142.844.844,0,0,1,.294.523l3.306,13.379a.15.15,0,0,0,.068.085.091.091,0,0,0,.1,0,.093.093,0,0,0,.049-.085l3.325-13.336a.809.809,0,0,1,.763-.708h3.13q.469.029.47.806l.919,18.767v.085q0,.679-.489.679h-2.152q-.47,0-.508-.763l-.607-14.524c0-.057-.019-.09-.058-.1a.058.058,0,0,0-.078.042l-3.561,14.666q-.156.679-.665.679h-1.271c-.314,0-.535-.226-.666-.679l-3.462-14.595c-.014-.057-.04-.065-.079-.028a.152.152,0,0,0-.019.085l-.626,14.453q0,.764-.45.763Z" transform="translate(-2.295 0)" fill="#e6e6e6"/>
      <path id="Контур_422" data-name="Контур 422" d="M1217.076,554.91a.5.5,0,0,1-.372-.12.845.845,0,0,1-.117-.545V535.239a.84.84,0,0,1,.117-.544.5.5,0,0,1,.372-.121h2.876a.5.5,0,0,1,.371.121.832.832,0,0,1,.118.544v17.112c0,.207.091.311.274.311h5.086a.578.578,0,0,1,.372.1.611.611,0,0,1,.117.453v1.131a.636.636,0,0,1-.117.459.547.547,0,0,1-.372.106Z" transform="translate(-3.355 0)" fill="#e6e6e6"/>
      <path id="Контур_423" data-name="Контур 423" d="M1230.731,555.508a.592.592,0,0,1-.47-.2.751.751,0,0,1-.176-.51v-.89c0-.076,0-.148.01-.218a1.241,1.241,0,0,1,.029-.187,1.04,1.04,0,0,1,.059-.17c.026-.059.049-.108.068-.146a1.086,1.086,0,0,1,.1-.145c.046-.059.078-.1.1-.13s.059-.073.117-.137a1.442,1.442,0,0,1,.128-.13c.025-.021.078-.067.156-.138a1.637,1.637,0,0,0,.156-.153l4.4-4.517a.424.424,0,0,0,.156-.308.324.324,0,0,0-.175-.275l-4.363-4.372a2.494,2.494,0,0,0-.225-.2,1.937,1.937,0,0,1-.215-.194c-.033-.038-.088-.094-.167-.17a.642.642,0,0,1-.146-.186c-.02-.049-.049-.114-.088-.194a.856.856,0,0,1-.078-.252,1.965,1.965,0,0,1-.02-.291v-1.036a.672.672,0,0,1,.176-.478.616.616,0,0,1,.47-.186.955.955,0,0,1,.488.194l5.693,5.537q.45.422.607.583a2.185,2.185,0,0,1,.322.47,1.371,1.371,0,0,1,.167.663v.794c0,.086,0,.164-.01.234a.716.716,0,0,1-.059.219,1.421,1.421,0,0,0-.068.186.523.523,0,0,1-.117.186.745.745,0,0,0-.118.162.807.807,0,0,1-.157.187c-.091.092-.146.148-.166.17s-.088.086-.2.194-.189.173-.215.194l-5.654,5.667A.955.955,0,0,1,1230.731,555.508Z" transform="translate(-3.355 -1.765)" fill="#e6e6e6"/>
    </g>
  </g>
</svg>
